User Type,Username,Date,Text
,bluebeta,2012-09-15T12:02Z,Can anyone confirm this torrent legit or waste of bandwidth?
,wsojr0303,2012-09-15T12:58Z,charlesfire22's torrents are always good. Small size and very good quality. I am a big fan. Thanks charlesfire22 for great work. Excellent
,maillort,2012-09-15T15:54Z,how about some file information asshat
,okonomiyaki,2012-09-16T02:14Z,"I think that the size (pixels) is a bit small for normal DVD quality, because the vertical pixels are only like around 272 I think.. But I found out that I think all of the ones with SPARKS in the name is the same size, because I downloaded it from extremezone also and it was the same size as this one..

One good thing about charlesfire22's though is that it is one file.. Where as extremezone's and scene4all's are split in to 2 files, as if any one still uses CDs any more in this day and age.."
,izwotitiz,2012-09-16T02:14Z,"Thank you for sharing this. A great download. 
V 10, A 9. 
I like the smaller file; the quality is still there. "
,cutsickass1,2012-09-16T23:40Z,"This in NOT Xvid, it's re-encoded h264:

General
Complete name                    : People.Like.Us.2012.DVDRip.XviD-SPARKS.avi
Format                           : Flash Video
File size                        : 410 MiB
Duration                         : 1h 54mn
Overall bit rate                 : 500 Kbps
Tagging application              : Yet Another Metadata Injector for FLV - Version 1.4

Video
Format                           : AVC
Format/Info                      : Advanced Video Codec
Format profile                   : High@L2.1
Format settings, CABAC           : Yes
Format settings, ReFrames        : 4 frames
Codec ID                         : 7
Duration                         : 1h 54mn
Bit rate                         : 400 Kbps
Width                            : 640 pixels
Height                           : 272 pixels
Display aspect ratio             : 2.35:1
Frame rate mode                  : Constant
Frame rate                       : 23.976 fps
Color space                      : YUV
Chroma subsampling               : 4:2:0
Bit depth                        : 8 bits
Scan type                        : Progressive
Bits/(Pixel*Frame)               : 0.096
Stream size                      : 326 MiB (79%)
Writing library                  : x264 core 125 r2200 999b753
Encoding settings                : cabac=1 / ref=2 / deblock=1:0:0 / analyse=0x3:0x113 / me=hex / subme=6 / psy=1 / psy_rd=1.00:0.00 / mixed_ref=1 / me_range=16 / chroma_me=1 / trellis=1 / 8x8dct=1 / cqm=0 / deadzone=21,11 / fast_pskip=1 / chroma_qp_offset=-2 / threads=6 / lookahead_threads=1 / sliced_threads=0 / nr=0 / decimate=1 / interlaced=0 / bluray_compat=0 / constrained_intra=0 / bframes=3 / b_pyramid=2 / b_adapt=1 / b_bias=0 / direct=1 / weightb=1 / open_gop=0 / weightp=1 / keyint=250 / keyint_min=23 / scenecut=40 / intra_refresh=0 / rc_lookahead=30 / rc=2pass / mbtree=1 / bitrate=400 / ratetol=1.0 / qcomp=0.60 / qpmin=0 / qpmax=69 / qpstep=4 / cplxblur=20.0 / qblur=0.5 / vbv_maxrate=400 / vbv_bufsize=1000 / nal_hrd=none / ip_ratio=1.40 / aq=1:1.00

Audio
Format                           : AAC
Format/Info                      : Advanced Audio Codec
Format profile                   : LC
Codec ID                         : 10
Duration                         : 1h 54mn
Bit rate                         : 94.3 Kbps
Channel(s)                       : 2 channels
Channel positions                : Front: L R
Sampling rate                    : 44.1 KHz
Compression mode                 : Lossy
Stream size                      : 82.3 MiB (20%)"
